<svg viewBox="0 0 207.601 193.144" xml:space="preserve" xmlns="http://www.w3.org/2000/svg"><g fill="#ffffff" class="fill-f8a131"><ellipse cx="179.806" cy="115.144" rx="24" ry="41.998" transform="rotate(-23.997 179.82 115.148)"></ellipse><path d="M138.509 130.43c-8.902-20.973-10.024-42.028-4.234-55.524-24.391 6.484-42.47 30.102-42.47 58.238 0 33.137 25.071 60 56 60 16.376 0 31.11-7.53 41.348-19.535-16.878 3.153-38.69-15.015-50.644-43.18zM69.806 125.144s-26 32-22 44 50 20 50 20-13.649-18.054-18-28c-4.98-11.386-10-36-10-36zM105.806 66.113S45.052-22.257 6.388 29.29c-21.79 29.05 16.183 45.547 53.39 47.871 28.38 1.774 46.028-11.047 46.028-11.047z"></path><ellipse cx="133.806" cy="29.145" rx="31.998" ry="18.001" transform="rotate(-60 133.814 29.145)"></ellipse></g></svg>